<svg width="135" height="31" viewBox="0 0 135 31" fill="none" xmlns="http://www.w3.org/2000/svg">
<path fill-rule="evenodd" clip-rule="evenodd" d="M116.744 19.6792C116.744 18.9684 117.136 18.1256 117.592 17.8041C119.419 16.5181 123.673 17.3435 123.673 19.6792C123.673 21.8116 119.567 22.8838 117.693 21.5874C117.192 21.2398 116.744 20.4978 116.744 19.6792ZM115.011 11.977C115.011 12.9016 115.715 13.6262 116.609 13.6262C117.005 13.6262 120.153 11.2541 122.905 13.0423C123.757 13.595 123.671 13.946 123.671 15.2772C121.251 13.6054 117.341 13.847 115.373 15.6526C113.196 17.6511 113.381 21.9888 115.405 23.6694C117.794 25.6557 121.295 25.6749 123.804 23.9405C123.969 24.5783 124.614 25.0822 125.338 24.9675C126.005 24.8615 126.602 24.2446 126.602 23.5286V13.9008C126.602 13.1779 126.23 12.3941 125.939 11.9735C122.947 7.64452 115.011 9.48145 115.011 11.977Z" fill="white"/>
<path fill-rule="evenodd" clip-rule="evenodd" d="M87.0289 17.3421C87.0289 12.3128 92.5839 10.3212 94.7173 15.1837C96.8574 20.0602 90.7047 24.7663 87.8001 19.9854C87.4162 19.3546 87.0306 18.3206 87.0306 17.3404L87.0289 17.3421ZM95.1568 11.0163C94.7813 10.912 94.6247 10.7139 94.3401 10.4845C92.6226 9.1064 90.1558 9.12552 88.2716 10.097C84.4526 12.0642 82.7015 18.0043 86.0169 22.375C87.7816 24.6985 90.9792 25.6874 93.6514 24.3144C94.3418 23.9599 94.5994 23.6419 95.1568 23.2561C95.2039 25.4319 97.8223 25.0183 97.8223 23.3934V7.16521C97.8223 5.48296 95.1332 4.7461 95.1517 7.57187C95.1585 8.71886 95.1568 9.86759 95.1568 11.0163Z" fill="white"/>
<path fill-rule="evenodd" clip-rule="evenodd" d="M107.815 15.2784H102.885V8.81352H107.815C111.39 8.81352 111.533 15.2784 107.815 15.2784ZM99.9532 7.57616V22.9788C99.9532 25.9419 102.885 25.2589 102.885 23.667V18.4413C106.38 18.4413 109.517 18.9626 111.716 16.693C115.391 12.8992 113.363 5.65234 107.281 5.65234H101.819C100.652 5.65234 99.9532 6.3753 99.9532 7.5779V7.57616Z" fill="white"/>
<path fill-rule="evenodd" clip-rule="evenodd" d="M77.168 12.8019C79.7577 12.8019 80.2174 14.213 81.0324 15.9648H73.9704C74.0832 14.5658 75.6071 12.8019 77.1697 12.8019H77.168ZM71.1719 16.653C71.1719 18.98 71.2712 20.2556 72.5812 22.2124C75.0851 25.9558 79.7628 25.5665 81.8541 22.8641C82.6219 21.8735 83.314 21.0272 82.531 19.9219C81.3489 18.2535 79.9514 20.8777 79.8739 20.9577C77.5351 23.3768 74.1657 21.2548 73.9721 18.8549C75.3444 18.8549 82.5293 19.1086 83.2011 18.6168C83.6642 18.2779 83.873 17.7461 83.7838 16.9919C83.5379 14.9169 83.0698 13.2711 81.6722 11.7331C79.0808 8.88473 74.5783 9.22883 72.3438 12.9114C71.874 13.6864 71.1736 15.4608 71.1736 16.6547L71.1719 16.653Z" fill="white"/>
<path fill-rule="evenodd" clip-rule="evenodd" d="M47.1853 14.864C47.1853 17.8514 47.906 20.2288 49.6824 22.0518C52.6695 25.1174 57.0256 25.8873 60.4572 23.748C64.5961 21.1673 62.0417 19.6779 61.71 19.6779C59.9992 19.6779 60.9792 19.8865 58.9906 21.136C53.2892 24.7142 47.0489 16.9286 51.6356 10.7957C53.1949 8.712 56.3925 7.93865 58.9906 9.55834C60.3545 10.4099 60.5633 11.1537 61.3093 11.1537C62.4273 11.1537 64.4799 9.42974 60.1878 6.81078C56.805 4.7462 52.6695 5.56299 49.8828 8.43742C48.9466 9.40367 48.7007 9.82076 48.071 11.1068C47.5608 12.1512 47.1836 13.3625 47.1836 14.8675L47.1853 14.864Z" fill="white"/>
<path fill-rule="evenodd" clip-rule="evenodd" d="M127.535 7.57686V23.1168C127.535 25.6298 130.467 25.3291 130.467 23.6677V7.02769C130.467 5.30026 127.535 5.00135 127.535 7.5786V7.57686Z" fill="white"/>
<path fill-rule="evenodd" clip-rule="evenodd" d="M66.6421 11.5643C66.2969 10.2279 63.9766 10.7093 63.9766 12.1152V23.6668C63.9766 25.0658 66.1874 25.4672 66.7633 24.0683C67.2163 22.9647 66.5596 16.2357 67.0748 15.0383C68.1171 12.621 70.1798 13.9313 71.2187 13.403C72.261 12.8747 72.7258 10.6016 69.4389 10.6016C68.0649 10.6016 67.457 10.9995 66.6404 11.5643H66.6421Z" fill="white"/>
<path fill-rule="evenodd" clip-rule="evenodd" d="M131.402 23.5305C131.402 25.6976 135.001 26.2903 135.001 23.2559C135.001 21.0975 131.402 21.028 131.402 23.5305Z" fill="white"/>
<path fill-rule="evenodd" clip-rule="evenodd" d="M0 15.4235C0 19.4258 1.63668 23.621 4.26346 26.3095C9.4042 31.5717 16.8922 32.5067 23.087 28.6052C23.6376 28.2594 24.5301 27.5712 24.9628 27.1298C28.6672 23.3412 28.0341 22.3576 28.0341 16.925V10.3733C28.0341 8.28091 28.6874 7.02792 29.6001 5.84791C30.7602 4.34987 32.535 3.8233 34.5152 3.8233C39.3259 3.8233 42.3551 10.375 38.5193 14.5077C37.1689 15.9623 34.8351 16.7565 32.7185 16.1847C32.0332 15.9988 32.0315 15.8337 31.2081 15.8337C29.5344 15.8337 28.5713 18.6421 30.8259 19.5023C34.3519 20.8474 37.7818 19.9072 40.5787 17.5872C46.8678 12.3718 43.7426 0 34.1178 0C32.4963 0 30.6508 0.563068 29.5782 1.18348C27.1467 2.59115 25.2827 4.91989 24.6749 7.86035C24.3044 9.65035 24.4627 17.005 24.4644 19.3806C24.4661 22.2307 23.8919 23.6419 21.6103 25.1695C17.1111 28.1812 11.0139 27.997 7.24048 24.0555C6.33457 23.1101 5.42867 22.0309 4.84607 20.7953C3.00059 16.8781 3.35588 12.2554 5.76376 8.67889C6.02138 8.29482 6.11568 8.25832 6.36657 7.93682C6.62251 7.6101 6.66629 7.51799 6.97443 7.19823C8.45957 5.655 11.3726 3.8233 14.2823 3.8233C15.855 3.8233 16.4712 3.75031 18.0423 4.17435C19.2193 4.49237 19.0643 4.77912 20.4973 4.77912C21.708 4.77912 21.9521 3.5435 21.9521 2.59637C21.9521 0.74033 17.1936 0.00347572 15.0753 0.00347572C12.5344 0.00347572 10.7529 0.613465 8.97145 1.34684C8.07902 1.71527 7.33982 2.18102 6.58378 2.70411C6.1864 2.9787 5.90015 3.22547 5.53475 3.53307C5.32428 3.71034 5.25861 3.80939 5.05655 3.99535C3.86776 5.08846 2.85578 6.24414 2.07111 7.73696C1.79665 8.26006 1.61648 8.47382 1.37906 9.0699C0.623018 10.9642 0.00168383 12.808 0.00168383 15.427L0 15.4235Z" fill="white"/>
</svg>
