<svg width="147" height="48" viewBox="0 0 147 48" fill="none" xmlns="http://www.w3.org/2000/svg">
<g filter="url(#filter0_b_4201_4515)">
<path fill-rule="evenodd" clip-rule="evenodd" d="M0 2C0 0.895431 0.895431 0 2 0H145C146.105 0 147 0.895431 147 2V46C147 47.1046 146.105 48 145 48H2C0.895427 48 0 47.1046 0 46V2ZM64.6895 16.5002H65.3823V10.4336H64.6895V16.5002ZM42.7432 16.5002V10.6874H44.7372C46.4613 10.6874 47.4805 11.7629 47.4805 13.5918C47.4805 15.4247 46.4653 16.5002 44.7372 16.5002H42.7432ZM44.6888 11.34H43.4683V15.8477H44.6888C45.986 15.8477 46.7393 15.0178 46.7393 13.5999C46.7393 12.1779 45.9779 11.34 44.6888 11.34ZM49.1482 14.329C49.1482 15.3562 49.6115 15.9524 50.4332 15.9524C51.255 15.9524 51.7183 15.3562 51.7183 14.329C51.7183 13.2977 51.255 12.7056 50.4332 12.7056C49.6115 12.7056 49.1482 13.2977 49.1482 14.329ZM52.4353 14.329C52.4353 15.7228 51.6699 16.5768 50.4332 16.5768C49.1965 16.5768 48.4312 15.7228 48.4312 14.329C48.4312 12.9312 49.1965 12.0812 50.4332 12.0812C51.6699 12.0812 52.4353 12.9312 52.4353 14.329ZM58.8242 12.1577H58.1273L57.2733 15.6301H57.2089L56.238 12.1577H55.5734L54.6025 15.6301H54.5381L53.6841 12.1577H52.9832L54.1997 16.5002H54.9006L55.8674 13.1406H55.9319L56.9027 16.5002H57.6077L58.8242 12.1577ZM60.4436 16.5002H59.7507V12.1577H60.4114V12.8425H60.4758C60.6934 12.3632 61.1969 12.0812 61.8616 12.0812C62.8364 12.0812 63.3802 12.6572 63.3802 13.6885V16.5002H62.6874V13.8577C62.6874 13.0762 62.3571 12.7056 61.6642 12.7056C60.9028 12.7056 60.4436 13.1688 60.4436 13.9302V16.5002ZM67.2273 14.329C67.2273 15.3562 67.6906 15.9524 68.5123 15.9524C69.3341 15.9524 69.7974 15.3562 69.7974 14.329C69.7974 13.2977 69.3341 12.7056 68.5123 12.7056C67.6906 12.7056 67.2273 13.2977 67.2273 14.329ZM70.5144 14.329C70.5144 15.7228 69.749 16.5768 68.5123 16.5768C67.2756 16.5768 66.5103 15.7228 66.5103 14.329C66.5103 12.9312 67.2756 12.0812 68.5123 12.0812C69.749 12.0812 70.5144 12.9312 70.5144 14.329ZM72.9395 15.9685C72.4359 15.9685 72.0613 15.7107 72.0613 15.2676C72.0613 14.8325 72.3513 14.6029 73.012 14.5586L74.1802 14.4821V14.8809C74.1802 15.5012 73.6525 15.9685 72.9395 15.9685ZM72.8105 16.5768C73.3906 16.5768 73.866 16.323 74.1479 15.8597H74.2124V16.5002H74.873V13.5273C74.873 12.625 74.2809 12.0812 73.2214 12.0812C72.2949 12.0812 71.6101 12.5404 71.5175 13.2373H72.2184C72.3151 12.8949 72.6776 12.6975 73.1973 12.6975C73.8458 12.6975 74.1802 12.9916 74.1802 13.5273V13.9221L72.9274 13.9987C71.9163 14.0591 71.3442 14.5062 71.3442 15.2837C71.3442 16.0773 71.9686 16.5768 72.8105 16.5768ZM79.1511 15.8074C78.8772 16.2908 78.3616 16.5768 77.7614 16.5768C76.6495 16.5768 75.9365 15.6946 75.9365 14.329C75.9365 12.9674 76.6576 12.0812 77.7614 12.0812C78.3656 12.0812 78.8772 12.3672 79.1229 12.8425H79.1833V10.4336H79.8762V16.5002H79.2156V15.8074H79.1511ZM79.1995 14.329C79.1995 13.334 78.708 12.7056 77.9225 12.7056C77.1329 12.7056 76.6536 13.3179 76.6536 14.329C76.6536 15.3441 77.1289 15.9524 77.9225 15.9524C78.712 15.9524 79.1995 15.332 79.1995 14.329ZM85.3346 15.9524C84.5128 15.9524 84.0496 15.3562 84.0496 14.329C84.0496 13.2977 84.5128 12.7056 85.3346 12.7056C86.1564 12.7056 86.6196 13.2977 86.6196 14.329C86.6196 15.3562 86.1564 15.9524 85.3346 15.9524ZM85.3346 16.5768C86.5713 16.5768 87.3367 15.7228 87.3367 14.329C87.3367 12.9312 86.5713 12.0812 85.3346 12.0812C84.0979 12.0812 83.3325 12.9312 83.3325 14.329C83.3325 15.7228 84.0979 16.5768 85.3346 16.5768ZM89.1172 16.5002H88.4243V12.1577H89.085V12.8425H89.1494C89.3669 12.3632 89.8705 12.0812 90.5352 12.0812C91.51 12.0812 92.0538 12.6572 92.0538 13.6885V16.5002H91.361V13.8577C91.361 13.0762 91.0306 12.7056 90.3378 12.7056C89.5764 12.7056 89.1172 13.1688 89.1172 13.9302V16.5002ZM95.9412 11.0741V12.1577H95.212V12.7378H95.9412V15.3723C95.9412 16.2021 96.2997 16.5325 97.194 16.5325C97.3309 16.5325 97.4558 16.5164 97.5928 16.4922V15.9081C97.4639 15.9202 97.4034 15.9242 97.2786 15.9242C96.8274 15.9242 96.634 15.7067 96.634 15.1951V12.7378H97.6411V12.1577H96.634V11.0741H95.9412ZM99.3813 16.5002H98.6885V10.4336H99.3813V12.8425H99.4458C99.6633 12.3632 100.159 12.0812 100.823 12.0812C101.81 12.0812 102.362 12.6693 102.362 13.6885V16.5002H101.669V13.8577C101.669 13.0883 101.331 12.7056 100.626 12.7056C99.8486 12.7056 99.3813 13.197 99.3813 13.9302V16.5002ZM105.359 12.6935C106.048 12.6935 106.507 13.201 106.524 13.9705H104.131C104.183 13.201 104.667 12.6935 105.359 12.6935ZM106.503 15.3763C106.322 15.759 105.943 15.9645 105.384 15.9645C104.646 15.9645 104.167 15.4207 104.131 14.5626V14.5304H107.253V14.2645C107.253 12.915 106.54 12.0812 105.367 12.0812C104.175 12.0812 103.41 12.9674 103.41 14.333C103.41 15.7067 104.163 16.5768 105.367 16.5768C106.318 16.5768 106.987 16.1216 107.196 15.3763H106.503ZM79.3918 34.0142C76.9675 34.0142 75.3635 32.7983 75.2683 30.8794H77.114C77.2311 31.8242 78.1686 32.4321 79.509 32.4321C80.7541 32.4321 81.655 31.7949 81.655 30.9087C81.655 30.147 81.0764 29.7002 79.7214 29.3853L78.3518 29.0703C76.4328 28.6382 75.5319 27.686 75.5319 26.1113C75.5319 24.1924 77.0993 22.918 79.465 22.918C81.6843 22.918 83.2883 24.1924 83.3762 26.0088H81.5671C81.4352 25.0786 80.6149 24.4927 79.4577 24.4927C78.2419 24.4927 77.4362 25.0786 77.4362 25.9795C77.4362 26.6899 77.9709 27.1074 79.2819 27.4077L80.4977 27.686C82.6437 28.1694 83.5446 29.063 83.5446 30.6743C83.5446 32.7324 81.9553 34.0142 79.3918 34.0142ZM52.1519 33.7505H50.123L49.2295 31.0479H45.3403L44.4321 33.7505H42.5205L46.2705 23.1816H48.3945L52.1519 33.7505ZM47.3545 25.1958H47.23L45.7798 29.5537H48.79L47.3545 25.1958ZM55.3528 27.0635C55.8143 26.1553 56.7444 25.606 57.8431 25.606C59.8719 25.606 61.1463 27.1733 61.1463 29.7441C61.1463 32.3003 59.8865 33.8823 57.865 33.8823C56.7151 33.8823 55.8289 33.3843 55.4188 32.5347H55.2942V36.314H53.4778V25.7378H55.2283V27.0635H55.3528ZM55.2576 29.7441C55.2649 31.3481 56.034 32.3369 57.2718 32.3369C58.5315 32.3369 59.2786 31.3628 59.2786 29.7441C59.2786 28.1255 58.5242 27.1514 57.2791 27.1514C56.0413 27.1514 55.2649 28.1475 55.2576 29.7441ZM67.0353 25.606C65.9366 25.606 65.0064 26.1553 64.545 27.0635H64.4205V25.7378H62.67V36.314H64.4864V32.5347H64.6109C65.0211 33.3843 65.9073 33.8823 67.0572 33.8823C69.0787 33.8823 70.3385 32.3003 70.3385 29.7441C70.3385 27.1733 69.0641 25.606 67.0353 25.606ZM66.464 32.3369C65.2262 32.3369 64.4571 31.3481 64.4498 29.7441C64.4571 28.1475 65.2335 27.1514 66.4713 27.1514C67.7164 27.1514 68.4708 28.1255 68.4708 29.7441C68.4708 31.3628 67.7237 32.3369 66.464 32.3369ZM85.7568 23.8262V25.7891H84.4531V27.2393H85.7568V31.6118C85.7568 33.1646 86.4893 33.7871 88.3276 33.7871C88.6792 33.7871 89.0088 33.7505 89.2651 33.6992V32.2783L89.2426 32.2807C89.0431 32.3013 88.9117 32.3149 88.6646 32.3149C87.9028 32.3149 87.5659 31.9634 87.5659 31.1724V27.2393H89.3237V25.7891H87.5659V23.8262H85.7568ZM92.1878 29.7441C92.1878 31.4214 92.9129 32.3882 94.18 32.3882C95.4471 32.3882 96.1648 31.4214 96.1648 29.7441C96.1648 28.0742 95.4397 27.1001 94.18 27.1001C92.9129 27.1001 92.1878 28.0742 92.1878 29.7441ZM98.0325 29.7441C98.0325 32.3442 96.575 33.9116 94.18 33.9116C91.7776 33.9116 90.3274 32.3442 90.3274 29.7441C90.3274 27.1587 91.7996 25.5767 94.18 25.5767C96.5677 25.5767 98.0325 27.1514 98.0325 29.7441ZM99.5636 33.7505H101.38V29.1216C101.38 28.001 102.2 27.2686 103.365 27.2686C103.65 27.2686 104.149 27.3198 104.288 27.3711V25.6865C104.112 25.6353 103.797 25.606 103.541 25.606C102.515 25.606 101.658 26.1919 101.439 26.9829H101.314V25.7378H99.5636V33.7505ZM110.477 28.9678C110.44 27.7812 109.723 27.0195 108.631 27.0195C107.547 27.0195 106.786 27.7959 106.705 28.9678H110.477ZM108.704 32.4688C109.605 32.4688 110.228 32.1392 110.492 31.5459H112.213C111.869 33.0034 110.543 33.9116 108.653 33.9116C106.295 33.9116 104.874 32.3516 104.874 29.7734C104.874 27.1953 106.317 25.5767 108.639 25.5767C110.924 25.5767 112.293 27.0928 112.293 29.6196V30.2056H106.698V30.3008C106.742 31.6338 107.511 32.4688 108.704 32.4688ZM32.407 24.1524C32.4177 23.3666 32.6339 22.5962 33.035 21.9127C33.4361 21.2292 34.0096 20.655 34.7019 20.2434C34.2618 19.6361 33.6815 19.1362 33.0068 18.7837C32.333 18.431 31.5823 18.2354 30.8161 18.2122C29.8156 18.1107 28.8343 18.4873 28.0324 18.7951C27.5233 18.9905 27.0865 19.1582 26.7629 19.1582C26.395 19.1582 25.9456 18.9836 25.442 18.7881C24.7834 18.5323 24.032 18.2405 23.2491 18.2561C22.3563 18.284 21.4849 18.5352 20.7215 18.9853C19.9592 19.4354 19.3293 20.0689 18.8941 20.8242C17.0111 23.9765 18.416 28.6094 20.2201 31.1575C21.1217 32.4052 22.1771 33.799 23.5568 33.7496C24.1827 33.7245 24.6269 33.5438 25.0857 33.3571C25.6167 33.141 26.1674 32.9169 27.0423 32.9169C27.8663 32.9169 28.393 33.1338 28.8985 33.3421C29.3834 33.5418 29.8489 33.7335 30.5386 33.7181C31.9874 33.6955 32.9006 32.4649 33.7711 31.2054C34.4195 30.3163 34.919 29.3337 35.25 28.294C34.4078 27.9496 33.6893 27.3733 33.184 26.6368C32.6787 25.9004 32.408 25.0363 32.407 24.1524ZM30.5327 12.75C30.6196 13.925 30.2612 15.0887 29.5345 15.9941C29.1859 16.4433 28.7441 16.8047 28.2414 17.0511C27.7397 17.2974 27.1895 17.4224 26.6339 17.4165C26.5981 16.8514 26.6706 16.2847 26.8463 15.7487C27.0219 15.2126 27.2979 14.7178 27.659 14.2924C28.3956 13.4217 29.4215 12.871 30.5327 12.75Z" fill="url(#paint0_linear_4201_4515)"/>
</g>
<defs>
<filter id="filter0_b_4201_4515" x="-16" y="-16" width="179" height="80" filterUnits="userSpaceOnUse" color-interpolation-filters="sRGB">
<feFlood flood-opacity="0" result="BackgroundImageFix"/>
<feGaussianBlur in="BackgroundImageFix" stdDeviation="8"/>
<feComposite in2="SourceAlpha" operator="in" result="effect1_backgroundBlur_4201_4515"/>
<feBlend mode="normal" in="SourceGraphic" in2="effect1_backgroundBlur_4201_4515" result="shape"/>
</filter>
<linearGradient id="paint0_linear_4201_4515" x1="-214.714" y1="123.429" x2="93.2782" y2="-146.947" gradientUnits="userSpaceOnUse">
<stop stop-color="#FDE1FF"/>
<stop offset="0.171875" stop-color="#A9BCFF"/>
<stop offset="0.348958" stop-color="#B4F1FF"/>
<stop offset="0.526042" stop-color="#FFF4CE"/>
<stop offset="0.682292" stop-color="#D1D6FF"/>
<stop offset="0.838542" stop-color="#FFC2EE"/>
<stop offset="1" stop-color="#DAF1FF"/>
<stop offset="1" stop-color="#DAF1FF"/>
</linearGradient>
</defs>
</svg>
