<svg width="147" height="48" viewBox="0 0 147 48" fill="none" xmlns="http://www.w3.org/2000/svg">
<g filter="url(#filter0_b_4201_4524)">
<path fill-rule="evenodd" clip-rule="evenodd" d="M2 0C0.895431 0 0 0.895431 0 2V46C0 47.1046 0.895427 48 2 48H145C146.105 48 147 47.1046 147 46V2C147 0.895431 146.105 0 145 0H2ZM67.7586 26.7717C68.4002 26.3376 69.1553 26.1045 69.9286 26.1015C70.4459 26.0919 70.9596 26.187 71.4396 26.381C71.9195 26.5751 72.3557 26.8643 72.7222 27.2312C73.0887 27.5982 73.3779 28.0356 73.5728 28.5173C73.7678 28.9989 73.8643 29.5151 73.8566 30.035C73.8566 30.8124 73.6275 31.5723 73.1982 32.2189C72.7689 32.8655 72.1586 33.3696 71.4444 33.6678C70.7303 33.966 69.9442 34.0448 69.1855 33.8942C68.4268 33.7436 67.7296 33.3705 67.1817 32.8218C66.6338 32.2732 66.2599 31.5737 66.1073 30.8116C65.9546 30.0496 66.0299 29.2592 66.3239 28.5401C66.6178 27.8211 67.1171 27.2057 67.7586 26.7717ZM68.5642 32.1011C68.9769 32.3424 69.4524 32.4532 69.9286 32.4191C70.2305 32.412 70.5279 32.3442 70.8034 32.2198C71.0789 32.0955 71.3268 31.9169 71.5327 31.6948C71.7384 31.4727 71.8979 31.2114 72.0017 30.9263C72.1056 30.6413 72.1516 30.3382 72.1371 30.035C72.1371 29.5551 71.9933 29.0863 71.7246 28.6897C71.4558 28.293 71.0745 27.9869 70.6302 27.811C70.1859 27.6353 69.6992 27.5981 69.2336 27.7043C68.768 27.8105 68.3449 28.0551 68.0195 28.4064C67.6941 28.7575 67.4815 29.1992 67.4093 29.6735C67.3371 30.148 67.4086 30.6332 67.6146 31.0663C67.8206 31.4992 68.1515 31.8598 68.5642 32.1011ZM59.1896 26.7717C59.8313 26.3376 60.5864 26.1045 61.3597 26.1015C61.8768 26.0919 62.3907 26.187 62.8706 26.3811C63.3505 26.5751 63.7867 26.8644 64.1532 27.2313C64.5196 27.5983 64.8089 28.0356 65.0038 28.5173C65.1987 28.9989 65.2953 29.5151 65.2876 30.035C65.2876 30.8124 65.0585 31.5723 64.6292 32.2189C64.1998 32.8655 63.5895 33.3696 62.8754 33.6678C62.1612 33.966 61.3751 34.0448 60.6164 33.8942C59.8578 33.7436 59.1604 33.3705 58.6126 32.8218C58.0647 32.2732 57.6909 31.5736 57.5382 30.8116C57.3855 30.0496 57.461 29.2591 57.7549 28.5401C58.0488 27.821 58.548 27.2056 59.1896 26.7717ZM59.9952 32.1011C60.408 32.3424 60.8835 32.4532 61.3597 32.4191C61.6616 32.412 61.959 32.3442 62.2345 32.2199C62.5099 32.0955 62.7579 31.917 62.9637 31.6949C63.1695 31.4727 63.329 31.2114 63.4329 30.9263C63.5366 30.6413 63.5826 30.3382 63.5682 30.035C63.5682 29.5551 63.4244 29.0863 63.1556 28.6897C62.8869 28.293 62.5055 27.9869 62.0612 27.811C61.6169 27.6353 61.1302 27.5981 60.6647 27.7043C60.199 27.8105 59.776 28.0551 59.4505 28.4064C59.1252 28.7575 58.9126 29.1992 58.8404 29.6735C58.7681 30.148 58.8396 30.6332 59.0456 31.0663C59.2516 31.4992 59.5826 31.8598 59.9952 32.1011ZM51.1665 28.9772V27.3085H56.7546C56.8176 27.6524 56.8474 28.0017 56.8436 28.3514C56.8902 29.7915 56.374 31.1928 55.4058 32.2552C54.8603 32.8265 54.2004 33.2748 53.4695 33.5702C52.7386 33.8656 51.9536 34.0015 51.1665 33.9687C50.3609 33.9805 49.5611 33.8311 48.8135 33.5294C48.0659 33.2278 47.3855 32.7797 46.8116 32.2111C46.2379 31.6427 45.7822 30.9653 45.4712 30.2183C45.1602 29.4713 45 28.6695 45 27.8597C45 27.0499 45.1602 26.2481 45.4712 25.5011C45.7822 24.7541 46.2379 24.0766 46.8116 23.5082C47.3855 22.9398 48.0659 22.4916 48.8135 22.1899C49.5611 21.8882 50.3609 21.739 51.1665 21.7507C51.9373 21.7386 52.7028 21.8812 53.418 22.1703C54.1332 22.4594 54.7839 22.8892 55.3317 23.4344L54.1607 24.6115C53.3578 23.8332 52.2818 23.4049 51.1665 23.4195C50.0053 23.4353 48.897 23.9101 48.0815 24.7411C47.2659 25.572 46.8088 26.6924 46.8088 27.8597C46.8088 29.0269 47.2659 30.1473 48.0815 30.9783C48.897 31.8093 50.0053 32.284 51.1665 32.2998C51.7344 32.3231 52.301 32.2263 52.8295 32.0159C53.358 31.8055 53.8367 31.486 54.2348 31.0781C54.7631 30.5002 55.0817 29.7599 55.139 28.9772H51.1665ZM91.5709 26.8219C92.1702 27.2697 92.6179 27.8921 92.8531 28.6047L93.031 29.0517L87.7985 31.2271C87.9595 31.594 88.2265 31.9038 88.5648 32.1164C88.9031 32.329 89.2972 32.4344 89.6958 32.4191C90.0833 32.4212 90.4646 32.322 90.8024 32.1314C91.1402 31.9407 91.4229 31.665 91.6227 31.3314L92.9567 32.2254C92.5993 32.7647 92.1142 33.2063 91.5451 33.5106C90.9759 33.8148 90.3405 33.9723 89.6958 33.9687C89.1813 33.9761 88.6705 33.8792 88.194 33.6838C87.7176 33.4884 87.2852 33.1984 86.9227 32.8313C86.5602 32.4641 86.275 32.0272 86.0843 31.5468C85.8935 31.0664 85.801 30.5522 85.8123 30.035C85.7861 29.5303 85.8619 29.0255 86.0352 28.551C86.2085 28.0767 86.4758 27.6424 86.8207 27.2748C87.1658 26.9071 87.5814 26.6135 88.0423 26.4119C88.5033 26.2103 89.0003 26.1047 89.5031 26.1015C90.2496 26.1225 90.9715 26.3741 91.5709 26.8219ZM87.6304 29.0713C87.5371 29.3425 87.4985 29.6296 87.5169 29.9159L91.015 28.4558C90.8812 28.1887 90.6719 27.9672 90.4137 27.8187C90.1553 27.6704 89.8593 27.6017 89.5623 27.6213C89.2772 27.6342 88.9975 27.7041 88.7396 27.827C88.4817 27.9499 88.2508 28.1232 88.0603 28.3369C87.8698 28.5506 87.7237 28.8003 87.6304 29.0713ZM84.9822 33.7302H83.2628V22.168H84.9822V33.7302ZM80.3872 26.9806H80.4464V26.3399H82.077V33.4025C82.077 36.308 80.3724 37.5 78.3564 37.5C77.6137 37.5037 76.8869 37.2846 76.269 36.8704C75.651 36.4563 75.1701 35.8662 74.8879 35.1756L76.3851 34.5497C76.5382 34.9535 76.8075 35.3024 77.1586 35.5518C77.5096 35.8013 77.9267 35.94 78.3564 35.9504C79.6461 35.9504 80.4464 35.1458 80.4464 33.6409V33.0747H80.3872C80.1289 33.3652 79.8109 33.5957 79.4551 33.75C79.0992 33.9044 78.7142 33.979 78.3268 33.9687C77.3178 33.9255 76.3643 33.4922 75.6655 32.7592C74.9667 32.0263 74.5766 31.0503 74.5766 30.0351C74.5766 29.0199 74.9667 28.0439 75.6655 27.311C76.3643 26.578 77.3178 26.1447 78.3268 26.1015C78.7127 26.0922 79.0961 26.1658 79.4515 26.3174C79.8067 26.469 80.1258 26.6951 80.3872 26.9806ZM76.9235 31.6538C77.327 32.0953 77.8808 32.3684 78.4751 32.4191C78.769 32.4068 79.0573 32.3353 79.3229 32.2085C79.5886 32.0817 79.826 31.9023 80.0212 31.6812C80.2163 31.46 80.365 31.2016 80.4585 30.9212C80.5519 30.641 80.5881 30.3446 80.565 30.0499C80.5897 29.7534 80.5547 29.455 80.4623 29.1722C80.3697 28.8896 80.2215 28.6286 80.0265 28.4047C79.8315 28.1809 79.5935 27.9988 79.3271 27.8693C79.0605 27.7398 78.7708 27.6656 78.4751 27.6511C77.8808 27.7018 77.327 27.9749 76.9235 28.4164C76.5201 28.8579 76.2961 29.4356 76.2961 30.0351C76.2961 30.6346 76.5201 31.2123 76.9235 31.6538ZM96.7934 22.1682H100.907C101.393 22.1415 101.879 22.2144 102.335 22.3829C102.792 22.5512 103.209 22.8113 103.563 23.1474C103.916 23.4835 104.197 23.8884 104.389 24.3375C104.581 24.7865 104.681 25.2702 104.681 25.759C104.681 26.2478 104.581 26.7315 104.389 27.1806C104.197 27.6295 103.916 28.0345 103.563 28.3705C103.209 28.7066 102.792 28.9667 102.335 29.1351C101.879 29.3035 101.393 29.3765 100.907 29.3497H98.51V33.7302H96.7934V22.1682ZM98.51 27.7407H100.952C101.214 27.7461 101.475 27.6989 101.719 27.6017C101.963 27.5046 102.184 27.3595 102.372 27.175C102.56 26.9904 102.709 26.7701 102.81 26.527C102.912 26.2838 102.965 26.0227 102.965 25.7591C102.965 25.4953 102.912 25.2342 102.81 24.991C102.709 24.7479 102.56 24.5276 102.372 24.343C102.184 24.1585 101.963 24.0134 101.719 23.9163C101.475 23.8192 101.214 23.7719 100.952 23.7774H98.51V27.7407ZM109.767 26.5059C110.311 26.1914 110.935 26.0434 111.562 26.0803C113.53 26.0803 115.053 27.2256 115.053 29.2783V33.711H113.396V32.8185H113.337C113.106 33.1865 112.781 33.4855 112.395 33.6844C112.011 33.8832 111.579 33.9746 111.147 33.949C110.793 33.9761 110.436 33.9313 110.098 33.8172C109.761 33.7031 109.45 33.522 109.183 33.2848C108.917 33.0476 108.701 32.759 108.548 32.4362C108.394 32.1133 108.307 31.7628 108.291 31.4054C108.291 29.7097 109.964 28.8023 111.606 28.8023C112.23 28.8009 112.845 28.9542 113.396 29.2485V29.1295C113.352 28.6919 113.138 28.2896 112.799 28.0107C112.461 27.7319 112.026 27.5993 111.591 27.6421C111.276 27.6148 110.96 27.6804 110.681 27.8311C110.402 27.9817 110.173 28.2107 110.022 28.49L108.498 27.8503C108.782 27.2876 109.223 26.8202 109.767 26.5059ZM110.008 31.4351C110.008 32.1343 110.792 32.4168 111.355 32.4168C111.857 32.4114 112.341 32.223 112.716 31.8867C113.092 31.5503 113.333 31.0887 113.396 30.5873C112.917 30.3194 112.376 30.1858 111.828 30.2005C110.984 30.2005 110.008 30.5427 110.008 31.4351ZM119.123 31.3458L121.091 26.3331H123L118.279 37.2363H116.489L118.235 33.3391L115.172 26.3331H117.021L119.064 31.3458H119.123ZM107.344 33.7302H105.627V22.1682H107.344V33.7302ZM68.437 16.7229H67.7441V10.6562H68.437V16.7229ZM45.7978 10.91V16.7229H47.7918C49.52 16.7229 50.5351 15.6473 50.5351 13.8145C50.5351 11.9856 49.5159 10.91 47.7918 10.91H45.7978ZM46.5229 11.5626H47.7435C49.0325 11.5626 49.7939 12.4005 49.7939 13.8225C49.7939 15.2405 49.0406 16.0703 47.7435 16.0703H46.5229V11.5626ZM53.4879 16.175C52.6661 16.175 52.2028 15.5789 52.2028 14.5516C52.2028 13.5204 52.6661 12.9282 53.4879 12.9282C54.3096 12.9282 54.7729 13.5204 54.7729 14.5516C54.7729 15.5789 54.3096 16.175 53.4879 16.175ZM53.4879 16.7994C54.7245 16.7994 55.4899 15.9454 55.4899 14.5516C55.4899 13.1538 54.7245 12.3038 53.4879 12.3038C52.2512 12.3038 51.4858 13.1538 51.4858 14.5516C51.4858 15.9454 52.2512 16.7994 53.4879 16.7994ZM61.1819 12.3804H61.8788L60.6623 16.7229H59.9573L58.9865 13.3633H58.9221L57.9553 16.7229H57.2543L56.0378 12.3804H56.7387L57.5927 15.8528H57.6572L58.628 12.3804H59.2927L60.2635 15.8528H60.3279L61.1819 12.3804ZM62.8054 16.7229H63.4982V14.1528C63.4982 13.3915 63.9575 12.9282 64.7188 12.9282C65.4117 12.9282 65.742 13.2988 65.742 14.0803V16.7229H66.4349V13.9111C66.4349 12.8799 65.8911 12.3038 64.9162 12.3038C64.2515 12.3038 63.748 12.5858 63.5305 13.0652H63.466V12.3804H62.8054V16.7229ZM71.567 16.175C70.7452 16.175 70.2819 15.5789 70.2819 14.5516C70.2819 13.5204 70.7452 12.9282 71.567 12.9282C72.3887 12.9282 72.852 13.5204 72.852 14.5516C72.852 15.5789 72.3887 16.175 71.567 16.175ZM71.567 16.7994C72.8036 16.7994 73.569 15.9454 73.569 14.5516C73.569 13.1538 72.8036 12.3038 71.567 12.3038C70.3303 12.3038 69.5649 13.1538 69.5649 14.5516C69.5649 15.9454 70.3303 16.7994 71.567 16.7994ZM75.1159 15.4902C75.1159 15.9333 75.4905 16.1912 75.9941 16.1912C76.7071 16.1912 77.2348 15.7239 77.2348 15.1035V14.7047L76.0666 14.7812C75.4059 14.8256 75.1159 15.0552 75.1159 15.4902ZM77.2026 16.0824C76.9206 16.5457 76.4453 16.7994 75.8652 16.7994C75.0233 16.7994 74.3989 16.2999 74.3989 15.5063C74.3989 14.7289 74.9709 14.2817 75.982 14.2213L77.2348 14.1448V13.75C77.2348 13.2142 76.9005 12.9202 76.2519 12.9202C75.7322 12.9202 75.3697 13.1176 75.273 13.46H74.5721C74.6647 12.7631 75.3495 12.3038 76.2761 12.3038C77.3355 12.3038 77.9277 12.8477 77.9277 13.75V16.7229H77.267V16.0824H77.2026ZM80.816 16.7994C81.4162 16.7994 81.9318 16.5134 82.2057 16.03H82.2702V16.7229H82.9308V10.6562H82.238V13.0652H82.1776C81.9318 12.5898 81.4202 12.3038 80.816 12.3038C79.7122 12.3038 78.9911 13.1901 78.9911 14.5516C78.9911 15.9172 79.7042 16.7994 80.816 16.7994ZM80.9771 12.9282C81.7626 12.9282 82.2541 13.5566 82.2541 14.5516C82.2541 15.5547 81.7667 16.175 80.9771 16.175C80.1835 16.175 79.7082 15.5668 79.7082 14.5516C79.7082 13.5405 80.1876 12.9282 80.9771 12.9282ZM87.1042 14.5516C87.1042 15.5789 87.5674 16.175 88.3892 16.175C89.211 16.175 89.6743 15.5789 89.6743 14.5516C89.6743 13.5204 89.211 12.9282 88.3892 12.9282C87.5674 12.9282 87.1042 13.5204 87.1042 14.5516ZM90.3913 14.5516C90.3913 15.9454 89.6259 16.7994 88.3892 16.7994C87.1525 16.7994 86.3871 15.9454 86.3871 14.5516C86.3871 13.1538 87.1525 12.3038 88.3892 12.3038C89.6259 12.3038 90.3913 13.1538 90.3913 14.5516ZM91.4789 16.7229H92.1718V14.1528C92.1718 13.3915 92.631 12.9282 93.3924 12.9282C94.0853 12.9282 94.4156 13.2988 94.4156 14.0803V16.7229H95.1085V13.9111C95.1085 12.8799 94.5646 12.3038 93.5898 12.3038C92.9251 12.3038 92.4216 12.5858 92.204 13.0652H92.1396V12.3804H91.4789V16.7229ZM20.0808 12.7823L33.0333 19.8818L29.9736 22.7912L19.8203 13.1323C19.6376 12.9576 19.8496 12.6572 20.0728 12.7778L20.0808 12.7823ZM18 33.8682V14.1308C18.0001 14.0879 18.013 14.0461 18.0369 14.0105C18.0608 13.9749 18.0948 13.9471 18.1345 13.9307C18.1743 13.9142 18.218 13.9098 18.2603 13.918C18.3025 13.9261 18.3414 13.9465 18.372 13.9766L28.702 24L18.372 34.0224C18.3414 34.0525 18.3025 34.0729 18.2603 34.081C18.218 34.0892 18.1743 34.0848 18.1345 34.0683C18.0948 34.0518 18.0608 34.0241 18.0369 33.9885C18.013 33.9529 18.0001 33.9111 18 33.8682ZM19.8215 34.8677C19.6377 35.0424 19.8498 35.3428 20.0739 35.2222L20.082 35.2177L33.0334 28.1182L29.9737 25.2078L19.8215 34.8677ZM34.6451 20.7627L38.2621 22.7444C39.246 23.2853 39.246 24.7147 38.2621 25.2556L34.6451 27.2359L31.2442 24L34.6451 20.7627Z" fill="url(#paint0_linear_4201_4524)"/>
</g>
<defs>
<filter id="filter0_b_4201_4524" x="-16" y="-16" width="179" height="80" filterUnits="userSpaceOnUse" color-interpolation-filters="sRGB">
<feFlood flood-opacity="0" result="BackgroundImageFix"/>
<feGaussianBlur in="BackgroundImageFix" stdDeviation="8"/>
<feComposite in2="SourceAlpha" operator="in" result="effect1_backgroundBlur_4201_4524"/>
<feBlend mode="normal" in="SourceGraphic" in2="effect1_backgroundBlur_4201_4524" result="shape"/>
</filter>
<linearGradient id="paint0_linear_4201_4524" x1="-42.8571" y1="71.1429" x2="206.374" y2="-118.878" gradientUnits="userSpaceOnUse">
<stop stop-color="#FDE1FF"/>
<stop offset="0.171875" stop-color="#A9BCFF"/>
<stop offset="0.348958" stop-color="#B4F1FF"/>
<stop offset="0.526042" stop-color="#FFF4CE"/>
<stop offset="0.682292" stop-color="#D1D6FF"/>
<stop offset="0.838542" stop-color="#FFC2EE"/>
<stop offset="1" stop-color="#DAF1FF"/>
<stop offset="1" stop-color="#DAF1FF"/>
</linearGradient>
</defs>
</svg>
