<svg width="24" height="24" viewBox="0 0 24 24" fill="none" xmlns="http://www.w3.org/2000/svg">
<path opacity="0.5" fill-rule="evenodd" clip-rule="evenodd" d="M0 12C0 5.3736 5.3736 0 12 0C18.6264 0 24 5.3736 24 12C24 18.6264 18.6264 24 12 24C5.3736 24 0 18.6264 0 12ZM18.2602 6.83638C18.9455 7.01762 19.486 7.54818 19.6703 8.22124C20.0131 9.45056 19.9999 12.0129 19.9999 12.0129C19.9999 12.0129 19.9999 14.5623 19.6705 15.7917C19.486 16.4647 18.9456 16.9952 18.2602 17.1764C17.0081 17.5 12 17.5 12 17.5C12 17.5 7.00489 17.5 5.73975 17.1635C5.0543 16.9823 4.51406 16.4517 4.32949 15.7788C4 14.5623 4 12 4 12C4 12 4 9.45056 4.32949 8.22124C4.51387 7.54828 5.06748 7.00467 5.73965 6.82363C6.9917 6.5 11.9998 6.5 11.9998 6.5C11.9998 6.5 17.0081 6.5 18.2602 6.83638ZM14.5699 12L10.4053 9.64473V14.3553L14.5699 12Z" fill="white"/>
</svg>
